HIERARCHY
ROOT Hips
{
	OFFSET 0.000000 0.000000 0.000000
	CHANNELS 6 Xposition Yposition Zposition Zrotation Yrotation Xrotation 
	JOINT LHipJoint
	{
		OFFSET 0.000000 0.000000 0.000000
		CHANNELS 3 Zrotation Yrotation Xrotation
		JOINT LeftUpLeg
		{
			OFFSET 1.363060 -1.794630 0.839290
			CHANNELS 3 Zrotation Yrotation Xrotation
			JOINT LeftLeg
			{
				OFFSET 2.448110 -6.726130 0.000000
				CHANNELS 3 Zrotation Yrotation Xrotation
				JOINT LeftFoot
				{
					OFFSET 2.562200 -7.039590 0.000000
					CHANNELS 3 Zrotation Yrotation Xrotation
					JOINT LeftToeBase
					{
						OFFSET 0.157640 -0.433110 2.322550
						CHANNELS 3 Zrotation Yrotation Xrotation
						End Site
						{
							OFFSET 0.000000 0.000000 0.000000
						}
					}
				}
			}
		}
	}
	JOINT RHipJoint
	{
		OFFSET 0.000000 0.000000 0.000000
		CHANNELS 3 Zrotation Yrotation Xrotation
		JOINT RightUpLeg
		{
			OFFSET -1.305520 -1.794630 0.839290
			CHANNELS 3 Zrotation Yrotation Xrotation
			JOINT RightLeg
			{
				OFFSET -2.542530 -6.985550 0.000000
				CHANNELS 3 Zrotation Yrotation Xrotation
				JOINT RightFoot
				{
					OFFSET -2.568260 -7.056230 0.000000
					CHANNELS 3 Zrotation Yrotation Xrotation
					JOINT RightToeBase
					{
						OFFSET -0.164730 -0.452590 2.363150
						CHANNELS 3 Zrotation Yrotation Xrotation
						End Site
						{
							OFFSET 0.000000 0.000000 0.000000
						}
					}
				}
			}
		}
	}
}
MOTION
Frames: 11
Frame Time: 0.008333
-9.300793 18.218772 -1.856212 19.115622 79.837108 39.544075 -9.848367 0.455776 2.986023 -6.757370 -2.269876 -42.233950 -0.370732 1.427485 37.717791 0.679676 3.183034 11.110154 1.105600 -0.000000 -42.378000 11.191714 -3.809768 2.576161 2.244382 0.884953 -6.253095 0.818249 -0.867178 9.542786 -0.357754 -0.949564 19.283276 -0.627900 -0.000000 -55.045700
-9.081452 18.318054 -1.873766 20.100602 80.124722 40.455001 -9.734845 0.564149 3.265418 -6.503605 -3.246386 -40.898004 -0.563467 1.172302 32.749020 0.535332 2.470172 13.416113 1.013001 0.000000 -43.481100 11.334145 -3.828144 2.330934 2.078370 0.017425 -5.410251 0.708061 -0.878995 9.065228 -0.581272 -2.484424 20.396635 -1.329099 -0.000000 -50.697701
-8.862608 18.403817 -1.894338 20.648459 80.405608 40.900142 -9.660409 0.657435 3.529365 -6.148042 -4.117142 -39.565399 -0.746937 0.935073 27.956868 0.426337 2.028580 15.710797 0.970900 -0.000000 -44.193900 11.426571 -3.838037 2.082449 2.023209 -0.798538 -4.615623 0.607205 -0.891067 8.938885 -0.825816 -4.266474 20.900019 -2.180401 -0.000000 -46.743700
-8.644040 18.475561 -1.917579 20.813422 80.680821 40.934542 -9.620513 0.732334 3.771430 -5.738433 -4.845954 -38.287943 -0.921853 0.715217 23.443127 0.350304 1.848958 17.883819 1.000900 0.000000 -44.585900 11.476101 -3.843888 1.836290 2.050702 -1.576544 -3.885088 0.516278 -0.907446 9.172049 -1.083073 -6.170985 20.858667 -3.088200 -0.000000 -43.389700
-8.425859 18.533347 -1.944085 20.467773 80.959339 40.431035 -9.626397 0.779523 3.970629 -5.302151 -5.326435 -37.138694 -1.088286 0.516819 19.344700 0.295821 1.820823 19.797892 1.075200 0.000000 -44.666400 11.467186 -3.855486 1.605985 2.191964 -2.254743 -3.184677 0.436942 -0.927548 9.697665 -1.352476 -8.153216 20.404430 -4.003800 -0.000000 -40.740400
-8.207871 18.577274 -1.971837 19.953121 81.227970 39.731310 -9.650152 0.812533 4.132667 -4.952154 -5.570905 -36.138084 -1.253972 0.334794 15.687564 0.254954 1.916157 21.398167 1.196500 -0.000000 -44.633300 11.442138 -3.869813 1.385713 2.337408 -2.950068 -2.594782 0.369398 -0.962024 10.595338 -1.611179 -9.970902 19.582011 -4.774600 -0.000000 -38.805000
-7.990026 18.608005 -2.001563 19.110446 81.494328 38.685838 -9.705844 0.825435 4.238088 -4.716604 -5.458862 -35.362321 -1.422420 0.173796 12.577434 0.209210 1.941723 22.586476 1.273500 -0.000000 -44.501300 11.382551 -3.897976 1.193169 2.532121 -3.587132 -2.089789 0.314728 -1.008736 11.780641 -1.857375 -11.623613 18.552107 -5.399600 0.000001 -37.634200
-7.772726 18.626226 -2.031132 18.347241 81.740039 37.693723 -9.760947 0.833614 4.298179 -4.674684 -5.077581 -34.757796 -1.602496 0.025427 9.935544 0.155510 1.906004 23.395936 1.311300 0.000000 -44.467900 11.333276 -3.932129 1.011033 2.654796 -4.278990 -1.716972 0.271629 -1.077566 13.298217 -2.066190 -12.923669 17.363644 -5.782200 -0.000000 -37.073501
-7.555806 18.632581 -2.061606 17.444897 81.972618 36.557288 -9.832439 0.831301 4.302779 -4.818500 -4.340771 -34.408864 -1.795107 -0.103726 7.851325 0.077573 1.607431 23.778746 1.202400 -0.000000 -44.438700 11.270945 -3.982584 0.859513 2.769167 -4.945996 -1.473489 0.240144 -1.163771 15.076074 -2.237398 -13.923726 16.141461 -5.975200 0.000000 -37.133000
-7.339879 18.627829 -2.090435 16.929346 82.172393 35.795138 -9.877787 0.835534 4.285495 -5.145896 -3.506165 -34.162062 -1.998889 -0.228121 6.104308 -0.007924 1.249855 23.894046 1.057499 0.000000 -44.652200 11.248377 -4.033513 0.709446 2.732162 -5.700722 -1.385382 0.216158 -1.275685 17.140987 -2.350400 -14.489945 14.895895 -5.928200 0.000000 -37.608800
-7.124862 18.612342 -2.119018 16.507527 82.349834 35.136154 -9.918639 0.838699 4.238674 -5.610724 -2.511896 -34.101718 -2.207898 -0.336539 4.797105 -0.111400 0.670844 23.723247 0.794201 -0.000000 -44.894300 11.235259 -4.093310 0.581329 2.632186 -6.446724 -1.441853 0.198327 -1.405072 19.418785 -2.414571 -14.734854 13.695626 -5.727900 0.000001 -38.450500
